HIERARCHY
ROOT RootJoint
{
    OFFSET   0.000000   0.000000   0.000000
    CHANNELS 6 Xposition Yposition Zposition Xrotation Yrotation Zrotation
    JOINT pelvis_lowerback
    {
        OFFSET   0.000000   0.093605   0.000000
        CHANNELS 3 Xrotation Yrotation Zrotation
        JOINT lowerback_torso
        {
            OFFSET   0.000000   0.100000   0.000000
            CHANNELS 3 Xrotation Yrotation Zrotation
            JOINT torso_head
            {
                OFFSET   0.000000   0.282350   0.000000
                CHANNELS 3 Xrotation Yrotation Zrotation
                End Site
                {
                    OFFSET   0.000000   0.192650   0.000000
                }
            }
            JOINT rTorso_Clavicle
            {
                OFFSET  -0.001000   0.157500   0.000000
                CHANNELS 3 Xrotation Yrotation Zrotation
                JOINT rShoulder
                {
                    OFFSET  -0.117647   0.000000   0.000000
                    CHANNELS 3 Xrotation Yrotation Zrotation
                    JOINT rElbow
                    {
                        OFFSET  -0.245000   0.000000   0.000000
                        CHANNELS 3 Xrotation Yrotation Zrotation
                        JOINT rWrist
                        {
                            OFFSET  -0.240000   0.000000   0.000000
                            CHANNELS 3 Xrotation Yrotation Zrotation
                            End Site
                            {
                                OFFSET  -0.116353  -0.002500   0.000000
                            }
                        }
                    }
                }
            }
            JOINT lTorso_Clavicle
            {
                OFFSET   0.001000   0.157500   0.000000
                CHANNELS 3 Xrotation Yrotation Zrotation
                JOINT lShoulder
                {
                    OFFSET   0.117647   0.000000   0.000000
                    CHANNELS 3 Xrotation Yrotation Zrotation
                    JOINT lElbow
                    {
                        OFFSET   0.245000   0.000000   0.000000
                        CHANNELS 3 Xrotation Yrotation Zrotation
                        JOINT lWrist
                        {
                            OFFSET   0.240000   0.000000   0.000000
                            CHANNELS 3 Xrotation Yrotation Zrotation
                            End Site
                            {
                                OFFSET   0.116353  -0.002500   0.000000
                            }
                        }
                    }
                }
            }
        }
    }
    JOINT rHip
    {
        OFFSET  -0.100000  -0.051395   0.000000
        CHANNELS 3 Xrotation Yrotation Zrotation
        JOINT rKnee
        {
            OFFSET   0.000000  -0.410000   0.000000
            CHANNELS 3 Xrotation Yrotation Zrotation
            JOINT rAnkle
            {
                OFFSET   0.000000  -0.390000   0.000000
                CHANNELS 3 Xrotation Yrotation Zrotation
                JOINT rToeJoint
                {
                    OFFSET   0.000000  -0.050000   0.130000
                    CHANNELS 3 Xrotation Yrotation Zrotation
                    End Site
                    {
                        OFFSET  -0.010000   0.002000   0.060000
                    }
                }
            }
        }
    }
    JOINT lHip
    {
        OFFSET   0.100000  -0.051395   0.000000
        CHANNELS 3 Xrotation Yrotation Zrotation
        JOINT lKnee
        {
            OFFSET   0.000000  -0.410000   0.000000
            CHANNELS 3 Xrotation Yrotation Zrotation
            JOINT lAnkle
            {
                OFFSET   0.000000  -0.390000   0.000000
                CHANNELS 3 Xrotation Yrotation Zrotation
                JOINT lToeJoint
                {
                    OFFSET   0.000000  -0.050000   0.130000
                    CHANNELS 3 Xrotation Yrotation Zrotation
                    End Site
                    {
                        OFFSET   0.010000   0.002000   0.060000
                    }
                }
            }
        }
    }
}
MOTION
Frames: 12
Frame Time:   0.008333
 -2.376719   0.925631   3.975860   0.000000   0.000000   0.000000   0.000000   0.000000   0.000000   0.000000   0.000000   0.000000   0.000000   0.000000   0.000000   0.000000   0.000000   0.000000   0.000000   0.000000   0.000000   0.000000   0.000000   0.000000   0.000000   0.000000   0.000000   0.000000   0.000000   0.000000   0.000000   0.000000   0.000000   0.000000   0.000000   0.000000   0.000000   0.000000   0.000000   0.000000   0.000000   0.000000   0.000000   0.000000   0.000000   0.000000   0.000000   0.000000   0.000000   0.000000   0.000000   0.000000   0.000000   0.000000   0.000000   0.000000   0.000000   0.000000   0.000000   0.000000   0.000000   0.000000   0.000000
 -2.376879   0.926156   3.974673   0.401625  -0.017286   0.040152  -0.378007   0.082047  -0.219910   0.251781  -0.251885   0.123086  -0.155398  -0.113829   0.160963   0.236145  -0.629480   0.521993  -0.049111  -0.118308   1.955003   0.077483   3.647909  -0.016547   0.199483  -1.166435  -3.142172   0.275903   0.342834  -0.313986   0.801221   0.513720  -1.868203   0.039791  -2.019781   0.024366   0.316277   0.432492   2.729001  -1.461387  -0.385204  -0.051343   2.958169  -0.000065  -0.010420  -1.930838  -0.534952  -0.177802   0.147419   0.000246  -0.001208  -1.161229   0.127052  -0.005265   1.767567  -0.000495   0.001692  -1.686556   0.556984   0.227427   0.393197  -0.000883   0.002292
 -2.377064   0.926962   3.973552   0.675324   0.005856   0.074034  -0.674840   0.129453  -0.445650   0.588277  -0.521898   0.260585  -0.258717  -0.231603   0.311074   0.466720  -1.202714   1.806796  -0.108642  -0.148435   4.393837   0.177060   7.173225  -0.029312   0.433654  -1.308299  -5.549637   0.552953   0.652915  -1.327025   1.568915   0.941447  -4.176679   0.090583  -3.956419   0.043007   0.682589   0.389529   4.773867  -2.769934  -0.774531  -0.139052   6.053160  -0.000215  -0.018360  -3.721764  -1.040505  -0.364124   0.263285   0.000424  -0.001851  -2.235442   0.255850   0.022471   3.581952  -0.001176   0.003797  -3.264793   1.079110   0.457215   0.689031  -0.001407   0.003590
 -2.377232   0.927634   3.972548   0.909884   0.040313   0.097501  -0.946410   0.169817  -0.649540   0.925091  -0.778209   0.406170  -0.344718  -0.343336   0.445712   0.697937  -1.694599   3.556752  -0.168948  -0.146521   7.079347   0.271906  10.480629  -0.036874   0.670686  -1.181271  -7.045231   0.818079   0.899709  -2.780402   2.300410   1.279245  -6.713433   0.139014  -5.776002   0.055579   1.045613   0.203217   5.995749  -3.940995  -1.136126  -0.255773   9.002129  -0.000243  -0.023390  -5.391088  -1.507252  -0.554075   0.375956   0.000589  -0.002268  -3.256486   0.377296   0.078017   5.290487  -0.001790   0.005463  -4.739407   1.561255   0.685846   0.955405  -0.001766   0.004382
 -2.377373   0.927883   3.971662   1.129708   0.067990   0.112388  -1.201669   0.212426  -0.827175   1.239871  -1.013615   0.559732  -0.424441  -0.447841   0.568489   0.934572  -2.117770   5.571709  -0.222272  -0.128845   9.867381   0.350460  13.570976  -0.040442   0.893155  -0.996909  -7.842469   1.069427   1.096770  -4.489342   2.998061   1.538331  -9.344934   0.179145  -7.481226   0.063375   1.396875  -0.040866   6.592831  -5.000885  -1.469911  -0.396523  11.773174  -0.000124  -0.026572  -6.950933  -1.937588  -0.745131   0.472900   0.000707  -0.002446  -4.237706   0.490132   0.153983   6.878327  -0.002281   0.006481  -6.118829   2.005984   0.911631   1.192050  -0.001978   0.004750
 -2.377483   0.927504   3.970893   1.340173   0.080062   0.121174  -1.442673   0.259512  -0.978908   1.530264  -1.226607   0.720450  -0.499649  -0.545381   0.681880   1.177584  -2.485850   7.716834  -0.265119  -0.105132  12.662600   0.408737  16.453931  -0.041151   1.095142  -0.819692  -8.157161   1.306617   1.259388  -6.326161   3.662420   1.732828 -11.981021   0.208848  -9.076518   0.067538   1.732963  -0.308527   6.762190  -5.964296  -1.777603  -0.557010  14.370925   0.000076  -0.028591  -8.409058  -2.334292  -0.935330   0.554851   0.000779  -0.002462  -5.180679   0.594031   0.244278   8.351701  -0.002656   0.006894  -7.409313   2.416008   1.133113   1.402501  -0.002076   0.004809
 -2.377565   0.926354   3.970234   1.542087   0.072787   0.125899  -1.670289   0.311181  -1.106528   1.798325  -1.417697   0.886974  -0.570365  -0.636417   0.787473   1.426156  -2.810299   9.900883  -0.296475  -0.081550  15.402872   0.446833  19.141461  -0.039860   1.276332  -0.670800  -8.155353   1.530438   1.399609  -8.203643   4.293560   1.875924 -14.562505   0.228128 -10.567039   0.068980   2.052161  -0.581031   6.654533  -6.841535  -2.060860  -0.733074  16.805327   0.000283  -0.029830  -9.772080  -2.699957  -1.123120   0.624554   0.000813  -0.002380  -6.084896   0.689119   0.344369   9.719583  -0.002935   0.006822  -8.616413   2.793967   1.349113   1.590682  -0.002091   0.004658
 -2.377510   0.923828   3.969323   1.430308   0.032119   0.147280  -1.452699   0.403804  -1.171057   2.121666  -1.536405   1.002878  -0.783549  -0.605003   0.910353   1.701877  -3.061279  11.565652  -0.151744  -0.004798  17.782339   0.475190  22.209256  -0.051153   1.357477  -0.933067  -7.190336   1.760392   1.519537  -9.527536   4.771005   1.722044 -17.027487   0.234743 -12.048138   0.070525   2.287387  -0.699140   5.696482  -7.277109  -2.316392  -0.869121  19.038461  -0.000847  -0.030123 -11.709422  -3.194801  -1.302300   0.850702   0.001068  -0.003524  -6.730872   1.177567   0.363838  11.018527  -0.001545   0.010594  -9.648819   3.201604   1.659729   1.683382  -0.001887   0.004443
 -2.377415   0.920129   3.968217   1.305342  -0.009342   0.173875  -1.194241   0.512407  -1.218005   2.471058  -1.622203   1.107140  -0.972671  -0.569933   1.033162   1.934099  -3.218994  12.907521  -0.042752   0.135911  19.857427   0.477561  25.115466  -0.060028   1.481871  -0.982624  -6.344050   1.955699   1.567359 -10.592370   5.194095   1.515996 -19.209336   0.230982 -13.454846   0.070493   2.524678  -0.916547   4.828144  -7.623072  -2.557538  -0.954288  21.127379  -0.002767  -0.029344 -13.527773  -3.651432  -1.486648   1.012974   0.001079  -0.003900  -7.416954   1.658390   0.322973  12.218232   0.000316   0.012951 -10.612933   3.579725   1.957689   1.782018  -0.001663   0.004285
 -2.377215   0.917850   3.967217   1.143523  -0.170698   0.626885  -0.905136   0.682850  -1.600349   2.833392  -1.647353   1.058440  -1.138681  -0.535561   1.142233   2.123579  -3.292405  14.204938   0.036701   0.319780  21.779468   0.468360  27.844708  -0.065643   1.627262  -0.916290  -5.713421   2.124974   1.586175 -11.579741   5.571377   1.297900 -21.184980   0.222697 -14.766279   0.068919   2.755203  -1.131536   4.204659  -7.869058  -2.738664  -1.376866  23.042485  -0.006045  -0.029562 -15.221285  -4.072374  -1.672958   1.207703   0.000991  -0.004535  -8.191498   2.114971  -0.090776  14.015695   0.001756   0.013925 -11.087566   3.912594   2.249589   1.894280  -0.001592   0.003985
 -2.377118   0.915787   3.966384   1.026510  -0.380813   1.010721  -0.660112   0.868416  -1.852731   3.161519  -1.641158   0.998666  -1.289800  -0.503872   1.234160   2.286297  -3.332037  15.291236   0.095668   0.516841  23.507689   0.448233  30.406315  -0.068032   1.777478  -0.772141  -5.176182   2.283942   1.603170 -12.454294   5.917808   1.081245 -23.016699   0.210447 -15.996618   0.065891   2.977592  -1.371107   3.627520  -8.076563  -2.918065  -1.610259  24.831996  -0.010427  -0.028996 -16.806060  -4.458680  -1.858513   1.376322   0.000731  -0.004831  -8.852966   2.567914  -0.415173  15.569219   0.002504   0.013509 -11.702588   4.236420   2.503733   2.020064  -0.001518   0.003752
 -2.377118   0.913797   3.965627   0.961042  -0.579402   1.374319  -0.443447   1.047215  -2.063207   3.451061  -1.625274   0.945938  -1.433797  -0.475107   1.325298   2.424906  -3.355175  16.216509   0.135165   0.712464  25.060967   0.421359  32.805023  -0.068350   1.927783  -0.587695  -4.766843   2.430251   1.616098 -13.221367   6.233674   0.870314 -24.694359   0.195602 -17.146832   0.061907   3.189904  -1.614874   3.123882  -8.259067  -3.098038  -1.729845  26.510086  -0.014841  -0.027199 -18.288040  -4.812562  -2.041682   1.524352   0.000417  -0.004838  -9.471105   2.990629  -0.710479  16.951557   0.002875   0.012634 -12.320237   4.534820   2.747274   2.122444  -0.001403   0.003421
